<svg width="1000" height="550" xmlns="http://www.w3.org/2000/svg"><rect width="100%" height="100%" fill="#ffffff"/><text x="500" y="28" text-anchor="middle" font-size="16" font-weight="600" font-family="system-ui, -apple-system, sans-serif" fill="#1f2937">空き家の建築時期別内訳（2023年）</text><line x1="80" y1="410" x2="940" y2="410" stroke="#374151" stroke-width="1.5"/><line x1="80" y1="60" x2="80" y2="410" stroke="#374151" stroke-width="1.5"/><text x="510" y="525" text-anchor="middle" font-size="12" font-family="system-ui, -apple-system, sans-serif" fill="#6b7280">建築時期</text><text x="25" y="235" text-anchor="middle" font-size="12" font-family="system-ui, -apple-system, sans-serif" fill="#6b7280" transform="rotate(-90, 25, 235)">空き家数（戸）</text><line x1="80" y1="60" x2="940" y2="60" stroke="#f3f4f6" stroke-width="0.5"/><text x="68" y="64" text-anchor="end" font-size="11" font-family="system-ui, -apple-system, sans-serif" fill="#6b7280">2.26M</text><line x1="80" y1="130" x2="940" y2="130" stroke="#f3f4f6" stroke-width="0.5"/><text x="68" y="134" text-anchor="end" font-size="11" font-family="system-ui, -apple-system, sans-serif" fill="#6b7280">1.81M</text><line x1="80" y1="200" x2="940" y2="200" stroke="#f3f4f6" stroke-width="0.5"/><text x="68" y="204" text-anchor="end" font-size="11" font-family="system-ui, -apple-system, sans-serif" fill="#6b7280">1.35M</text><line x1="80" y1="270" x2="940" y2="270" stroke="#f3f4f6" stroke-width="0.5"/><text x="68" y="274" text-anchor="end" font-size="11" font-family="system-ui, -apple-system, sans-serif" fill="#6b7280">903.20K</text><line x1="80" y1="340" x2="940" y2="340" stroke="#f3f4f6" stroke-width="0.5"/><text x="68" y="344" text-anchor="end" font-size="11" font-family="system-ui, -apple-system, sans-serif" fill="#6b7280">451.60K</text><line x1="80" y1="410" x2="940" y2="410" stroke="#f3f4f6" stroke-width="0.5"/><text x="68" y="414" text-anchor="end" font-size="11" font-family="system-ui, -apple-system, sans-serif" fill="#6b7280">0.00</text><line x1="80" y1="60" x2="80" y2="410" stroke="#f3f4f6" stroke-width="0.5"/><line x1="223.33333333333334" y1="60" x2="223.33333333333334" y2="410" stroke="#f3f4f6" stroke-width="0.5"/><line x1="366.6666666666667" y1="60" x2="366.6666666666667" y2="410" stroke="#f3f4f6" stroke-width="0.5"/><line x1="510" y1="60" x2="510" y2="410" stroke="#f3f4f6" stroke-width="0.5"/><line x1="653.3333333333334" y1="60" x2="653.3333333333334" y2="410" stroke="#f3f4f6" stroke-width="0.5"/><line x1="796.6666666666667" y1="60" x2="796.6666666666667" y2="410" stroke="#f3f4f6" stroke-width="0.5"/><line x1="940" y1="60" x2="940" y2="410" stroke="#f3f4f6" stroke-width="0.5"/><line x1="1083.3333333333335" y1="60" x2="1083.3333333333335" y2="410" stroke="#f3f4f6" stroke-width="0.5"/><text x="80" y="445" text-anchor="end" font-size="10" font-family="system-ui, -apple-system, sans-serif" fill="#6b7280" transform="rotate(-45 80 445)">1970年以前</text><text x="223.33333333333331" y="445" text-anchor="end" font-size="10" font-family="system-ui, -apple-system, sans-serif" fill="#6b7280" transform="rotate(-45 223.33333333333331 445)">1971～1980年</text><text x="366.66666666666663" y="445" text-anchor="end" font-size="10" font-family="system-ui, -apple-system, sans-serif" fill="#6b7280" transform="rotate(-45 366.66666666666663 445)">1981～1990年</text><text x="510" y="445" text-anchor="end" font-size="10" font-family="system-ui, -apple-system, sans-serif" fill="#6b7280" transform="rotate(-45 510 445)">1991～2000年</text><text x="653.3333333333333" y="445" text-anchor="end" font-size="10" font-family="system-ui, -apple-system, sans-serif" fill="#6b7280" transform="rotate(-45 653.3333333333333 445)">2001～2010年</text><text x="796.6666666666667" y="445" text-anchor="end" font-size="10" font-family="system-ui, -apple-system, sans-serif" fill="#6b7280" transform="rotate(-45 796.6666666666667 445)">2011～2020年</text><text x="940" y="445" text-anchor="end" font-size="10" font-family="system-ui, -apple-system, sans-serif" fill="#6b7280" transform="rotate(-45 940 445)">2021～2023年9月</text><rect x="110.71428571428572" y="60" width="49.142857142857146" height="350" fill="#000000" stroke="#fff" stroke-width="1" opacity="0.8"/><text x="135.2857142857143" y="55" text-anchor="middle" font-size="10" fill="#666">2.26M</text><rect x="233.57142857142856" y="225.3897254207263" width="49.142857142857146" height="184.6102745792737" fill="#000000" stroke="#fff" stroke-width="1" opacity="0.8"/><text x="258.1428571428571" y="220.3897254207263" text-anchor="middle" font-size="10" fill="#666">1.19M</text><rect x="356.42857142857144" y="291.42161204605844" width="49.142857142857146" height="118.57838795394154" fill="#000000" stroke="#fff" stroke-width="1" opacity="0.8"/><text x="381" y="286.42161204605844" text-anchor="middle" font-size="10" fill="#666">765.00K</text><rect x="479.2857142857143" y="340.24800708591675" width="49.142857142857146" height="69.75199291408326" fill="#000000" stroke="#fff" stroke-width="1" opacity="0.8"/><text x="503.85714285714283" y="335.24800708591675" text-anchor="middle" font-size="10" fill="#666">450.00K</text><rect x="602.1428571428572" y="377.75907883082374" width="49.142857142857146" height="32.24092116917626" fill="#000000" stroke="#fff" stroke-width="1" opacity="0.8"/><text x="626.7142857142858" y="372.75907883082374" text-anchor="middle" font-size="10" fill="#666">208.00K</text><rect x="725.0000000000001" y="387.98937112488926" width="49.142857142857146" height="22.01062887511072" fill="#000000" stroke="#fff" stroke-width="1" opacity="0.8"/><text x="749.5714285714287" y="382.98937112488926" text-anchor="middle" font-size="10" fill="#666">142.00K</text><rect x="847.8571428571429" y="403.7998228520815" width="49.142857142857146" height="6.200177147918512" fill="#000000" stroke="#fff" stroke-width="1" opacity="0.8"/><text x="872.4285714285714" y="398.7998228520815" text-anchor="middle" font-size="10" fill="#666">40.00K</text><g transform="translate(932, 60)"><rect x="0" y="0" width="16" height="12" fill="#000000" rx="2"/><text x="22" y="9" font-size="11" font-family="system-ui, -apple-system, sans-serif" fill="#374151">空き家数</text></g><g id="attribution"><rect x="0" y="500" width="1000" height="50" fill="#ffffff" opacity="0.95"/><line x1="0" y1="500" x2="1000" y2="500" stroke="#e5e7eb" stroke-width="0.5"/><text x="10" y="510" font-size="10" font-weight="500" font-family="system-ui, -apple-system, sans-serif" fill="#374151">出典: e-Stat（政府統計の総合窓口）</text><text x="10" y="523" font-size="9" font-family="system-ui, -apple-system, sans-serif" fill="#6b7280">統計表ID: 0004025681</text><text x="10" y="536" font-size="9" font-family="system-ui, -apple-system, sans-serif" fill="#6b7280">ライセンス: 政府標準利用規約（第2.0版）準拠 | https://www.e-stat.go.jp</text></g></svg>