<svg width="1000" height="550" xmlns="http://www.w3.org/2000/svg"><rect width="100%" height="100%" fill="#ffffff"/><text x="500" y="28" text-anchor="middle" font-size="16" font-weight="600" font-family="system-ui, -apple-system, sans-serif" fill="#1f2937">空き家件数の推移（全国）</text><line x1="80" y1="410" x2="940" y2="410" stroke="#374151" stroke-width="1.5"/><line x1="80" y1="60" x2="80" y2="410" stroke="#374151" stroke-width="1.5"/><text x="510" y="525" text-anchor="middle" font-size="12" font-family="system-ui, -apple-system, sans-serif" fill="#6b7280">年</text><text x="25" y="235" text-anchor="middle" font-size="12" font-family="system-ui, -apple-system, sans-serif" fill="#6b7280" transform="rotate(-90, 25, 235)">空き家数（戸）</text><line x1="80" y1="60" x2="940" y2="60" stroke="#f3f4f6" stroke-width="0.5"/><text x="68" y="64" text-anchor="end" font-size="11" font-family="system-ui, -apple-system, sans-serif" fill="#6b7280">10.26M</text><line x1="80" y1="130" x2="940" y2="130" stroke="#f3f4f6" stroke-width="0.5"/><text x="68" y="134" text-anchor="end" font-size="11" font-family="system-ui, -apple-system, sans-serif" fill="#6b7280">9.72M</text><line x1="80" y1="200" x2="940" y2="200" stroke="#f3f4f6" stroke-width="0.5"/><text x="68" y="204" text-anchor="end" font-size="11" font-family="system-ui, -apple-system, sans-serif" fill="#6b7280">9.18M</text><line x1="80" y1="270" x2="940" y2="270" stroke="#f3f4f6" stroke-width="0.5"/><text x="68" y="274" text-anchor="end" font-size="11" font-family="system-ui, -apple-system, sans-serif" fill="#6b7280">8.64M</text><line x1="80" y1="340" x2="940" y2="340" stroke="#f3f4f6" stroke-width="0.5"/><text x="68" y="344" text-anchor="end" font-size="11" font-family="system-ui, -apple-system, sans-serif" fill="#6b7280">8.10M</text><line x1="80" y1="410" x2="940" y2="410" stroke="#f3f4f6" stroke-width="0.5"/><text x="68" y="414" text-anchor="end" font-size="11" font-family="system-ui, -apple-system, sans-serif" fill="#6b7280">7.56M</text><line x1="80" y1="60" x2="80" y2="410" stroke="#f3f4f6" stroke-width="0.5"/><line x1="366.6666666666667" y1="60" x2="366.6666666666667" y2="410" stroke="#f3f4f6" stroke-width="0.5"/><line x1="653.3333333333334" y1="60" x2="653.3333333333334" y2="410" stroke="#f3f4f6" stroke-width="0.5"/><line x1="940" y1="60" x2="940" y2="410" stroke="#f3f4f6" stroke-width="0.5"/><line x1="1226.6666666666667" y1="60" x2="1226.6666666666667" y2="410" stroke="#f3f4f6" stroke-width="0.5"/><text x="80" y="430" text-anchor="middle" font-size="10" font-family="system-ui, -apple-system, sans-serif" fill="#6b7280" transform="rotate(0 80 430)">2008</text><text x="366.66666666666663" y="430" text-anchor="middle" font-size="10" font-family="system-ui, -apple-system, sans-serif" fill="#6b7280" transform="rotate(0 366.66666666666663 430)">2013</text><text x="653.3333333333333" y="430" text-anchor="middle" font-size="10" font-family="system-ui, -apple-system, sans-serif" fill="#6b7280" transform="rotate(0 653.3333333333333 430)">2018</text><text x="940" y="430" text-anchor="middle" font-size="10" font-family="system-ui, -apple-system, sans-serif" fill="#6b7280" transform="rotate(0 940 430)">2023</text><path d="M 80,410 L 366.66666666666663,326.8831168831169 L 653.3333333333333,289.2207792207792 L 940,60" fill="none" stroke="#000000" stroke-width="2" opacity="0.9"/><circle cx="80" cy="410" r="3" fill="#000000" stroke="#ffffff" stroke-width="1.5" opacity="0.95"/><circle cx="366.66666666666663" cy="326.8831168831169" r="3" fill="#000000" stroke="#ffffff" stroke-width="1.5" opacity="0.95"/><circle cx="653.3333333333333" cy="289.2207792207792" r="3" fill="#000000" stroke="#ffffff" stroke-width="1.5" opacity="0.95"/><circle cx="940" cy="60" r="3" fill="#000000" stroke="#ffffff" stroke-width="1.5" opacity="0.95"/><g transform="translate(932, 60)"><rect x="0" y="0" width="16" height="12" fill="#000000" rx="2"/><text x="22" y="9" font-size="11" font-family="system-ui, -apple-system, sans-serif" fill="#374151">空き家数</text></g><g id="attribution"><rect x="0" y="500" width="1000" height="50" fill="#ffffff" opacity="0.95"/><line x1="0" y1="500" x2="1000" y2="500" stroke="#e5e7eb" stroke-width="0.5"/><text x="10" y="510" font-size="10" font-weight="500" font-family="system-ui, -apple-system, sans-serif" fill="#374151">出典: e-Stat（政府統計の総合窓口）</text><text x="10" y="523" font-size="9" font-family="system-ui, -apple-system, sans-serif" fill="#6b7280">統計表ID: 0004025681</text><text x="10" y="536" font-size="9" font-family="system-ui, -apple-system, sans-serif" fill="#6b7280">ライセンス: 政府標準利用規約（第2.0版）準拠 | https://www.e-stat.go.jp</text></g></svg>