<svg width="1200" height="550" xmlns="http://www.w3.org/2000/svg"><rect width="100%" height="100%" fill="#ffffff"/><text x="600" y="28" text-anchor="middle" font-size="16" font-weight="600" font-family="system-ui, -apple-system, sans-serif" fill="#1f2937">空き家の所在地別内訳（上位10件、2023年）</text><line x1="80" y1="410" x2="1140" y2="410" stroke="#374151" stroke-width="1.5"/><line x1="80" y1="60" x2="80" y2="410" stroke="#374151" stroke-width="1.5"/><text x="610" y="525" text-anchor="middle" font-size="12" font-family="system-ui, -apple-system, sans-serif" fill="#6b7280">所在地</text><text x="25" y="235" text-anchor="middle" font-size="12" font-family="system-ui, -apple-system, sans-serif" fill="#6b7280" transform="rotate(-90, 25, 235)">空き家数（戸）</text><line x1="80" y1="60" x2="1140" y2="60" stroke="#f3f4f6" stroke-width="0.5"/><text x="68" y="64" text-anchor="end" font-size="11" font-family="system-ui, -apple-system, sans-serif" fill="#6b7280">1.83M</text><line x1="80" y1="130" x2="1140" y2="130" stroke="#f3f4f6" stroke-width="0.5"/><text x="68" y="134" text-anchor="end" font-size="11" font-family="system-ui, -apple-system, sans-serif" fill="#6b7280">1.46M</text><line x1="80" y1="200" x2="1140" y2="200" stroke="#f3f4f6" stroke-width="0.5"/><text x="68" y="204" text-anchor="end" font-size="11" font-family="system-ui, -apple-system, sans-serif" fill="#6b7280">1.10M</text><line x1="80" y1="270" x2="1140" y2="270" stroke="#f3f4f6" stroke-width="0.5"/><text x="68" y="274" text-anchor="end" font-size="11" font-family="system-ui, -apple-system, sans-serif" fill="#6b7280">731.20K</text><line x1="80" y1="340" x2="1140" y2="340" stroke="#f3f4f6" stroke-width="0.5"/><text x="68" y="344" text-anchor="end" font-size="11" font-family="system-ui, -apple-system, sans-serif" fill="#6b7280">365.60K</text><line x1="80" y1="410" x2="1140" y2="410" stroke="#f3f4f6" stroke-width="0.5"/><text x="68" y="414" text-anchor="end" font-size="11" font-family="system-ui, -apple-system, sans-serif" fill="#6b7280">0.00</text><line x1="80" y1="60" x2="80" y2="410" stroke="#f3f4f6" stroke-width="0.5"/><line x1="610" y1="60" x2="610" y2="410" stroke="#f3f4f6" stroke-width="0.5"/><line x1="1140" y1="60" x2="1140" y2="410" stroke="#f3f4f6" stroke-width="0.5"/><line x1="1670" y1="60" x2="1670" y2="410" stroke="#f3f4f6" stroke-width="0.5"/><text x="80" y="430" text-anchor="middle" font-size="10" font-family="system-ui, -apple-system, sans-serif" fill="#6b7280" transform="rotate(0 80 430)">他県</text><text x="610" y="430" text-anchor="middle" font-size="10" font-family="system-ui, -apple-system, sans-serif" fill="#6b7280" transform="rotate(0 610 430)">現住居と同じ市区町村</text><text x="1140" y="430" text-anchor="middle" font-size="10" font-family="system-ui, -apple-system, sans-serif" fill="#6b7280" transform="rotate(0 1140 430)">自県内</text><rect x="168.33333333333331" y="303.3533916849015" width="141.33333333333334" height="106.64660831509848" fill="#000000" stroke="#fff" stroke-width="1" opacity="0.8"/><text x="239" y="298.3533916849015" text-anchor="middle" font-size="10" fill="#666">557.00K</text><rect x="521.6666666666666" y="60" width="141.33333333333334" height="350" fill="#000000" stroke="#fff" stroke-width="1" opacity="0.8"/><text x="592.3333333333333" y="55" text-anchor="middle" font-size="10" fill="#666">1.83M</text><rect x="874.9999999999999" y="296.84354485776805" width="141.33333333333334" height="113.15645514223195" fill="#000000" stroke="#fff" stroke-width="1" opacity="0.8"/><text x="945.6666666666665" y="291.84354485776805" text-anchor="middle" font-size="10" fill="#666">591.00K</text><g transform="translate(1132, 60)"><rect x="0" y="0" width="16" height="12" fill="#000000" rx="2"/><text x="22" y="9" font-size="11" font-family="system-ui, -apple-system, sans-serif" fill="#374151">空き家数</text></g><g id="attribution"><rect x="0" y="500" width="1200" height="50" fill="#ffffff" opacity="0.95"/><line x1="0" y1="500" x2="1200" y2="500" stroke="#e5e7eb" stroke-width="0.5"/><text x="10" y="510" font-size="10" font-weight="500" font-family="system-ui, -apple-system, sans-serif" fill="#374151">出典: e-Stat（政府統計の総合窓口）</text><text x="10" y="523" font-size="9" font-family="system-ui, -apple-system, sans-serif" fill="#6b7280">統計表ID: 0004025681</text><text x="10" y="536" font-size="9" font-family="system-ui, -apple-system, sans-serif" fill="#6b7280">ライセンス: 政府標準利用規約（第2.0版）準拠 | https://www.e-stat.go.jp</text></g></svg>