<svg width="1000" height="550" xmlns="http://www.w3.org/2000/svg"><rect width="100%" height="100%" fill="#ffffff"/><text x="500" y="28" text-anchor="middle" font-size="16" font-weight="600" font-family="system-ui, -apple-system, sans-serif" fill="#1f2937">日本の人口推移（2000-2023年）</text><line x1="80" y1="450" x2="940" y2="450" stroke="#374151" stroke-width="1.5"/><line x1="80" y1="60" x2="80" y2="450" stroke="#374151" stroke-width="1.5"/><text x="510" y="525" text-anchor="middle" font-size="12" font-family="system-ui, -apple-system, sans-serif" fill="#6b7280">年</text><text x="25" y="255" text-anchor="middle" font-size="12" font-family="system-ui, -apple-system, sans-serif" fill="#6b7280" transform="rotate(-90, 25, 255)">人口（人）</text><line x1="80" y1="60" x2="940" y2="60" stroke="#f3f4f6" stroke-width="0.5"/><text x="68" y="64" text-anchor="end" font-size="11" font-family="system-ui, -apple-system, sans-serif" fill="#6b7280">128.07M</text><line x1="80" y1="138" x2="940" y2="138" stroke="#f3f4f6" stroke-width="0.5"/><text x="68" y="142" text-anchor="end" font-size="11" font-family="system-ui, -apple-system, sans-serif" fill="#6b7280">127.36M</text><line x1="80" y1="216" x2="940" y2="216" stroke="#f3f4f6" stroke-width="0.5"/><text x="68" y="220" text-anchor="end" font-size="11" font-family="system-ui, -apple-system, sans-serif" fill="#6b7280">126.65M</text><line x1="80" y1="294" x2="940" y2="294" stroke="#f3f4f6" stroke-width="0.5"/><text x="68" y="298" text-anchor="end" font-size="11" font-family="system-ui, -apple-system, sans-serif" fill="#6b7280">125.94M</text><line x1="80" y1="372" x2="940" y2="372" stroke="#f3f4f6" stroke-width="0.5"/><text x="68" y="376" text-anchor="end" font-size="11" font-family="system-ui, -apple-system, sans-serif" fill="#6b7280">125.23M</text><line x1="80" y1="450" x2="940" y2="450" stroke="#f3f4f6" stroke-width="0.5"/><text x="68" y="454" text-anchor="end" font-size="11" font-family="system-ui, -apple-system, sans-serif" fill="#6b7280">124.52M</text><line x1="80" y1="60" x2="80" y2="450" stroke="#f3f4f6" stroke-width="0.5"/><line x1="117.3913043478261" y1="60" x2="117.3913043478261" y2="450" stroke="#f3f4f6" stroke-width="0.5"/><line x1="154.7826086956522" y1="60" x2="154.7826086956522" y2="450" stroke="#f3f4f6" stroke-width="0.5"/><line x1="192.17391304347825" y1="60" x2="192.17391304347825" y2="450" stroke="#f3f4f6" stroke-width="0.5"/><line x1="229.56521739130434" y1="60" x2="229.56521739130434" y2="450" stroke="#f3f4f6" stroke-width="0.5"/><line x1="266.95652173913044" y1="60" x2="266.95652173913044" y2="450" stroke="#f3f4f6" stroke-width="0.5"/><line x1="304.3478260869565" y1="60" x2="304.3478260869565" y2="450" stroke="#f3f4f6" stroke-width="0.5"/><line x1="341.7391304347826" y1="60" x2="341.7391304347826" y2="450" stroke="#f3f4f6" stroke-width="0.5"/><line x1="379.1304347826087" y1="60" x2="379.1304347826087" y2="450" stroke="#f3f4f6" stroke-width="0.5"/><line x1="416.52173913043475" y1="60" x2="416.52173913043475" y2="450" stroke="#f3f4f6" stroke-width="0.5"/><line x1="453.9130434782609" y1="60" x2="453.9130434782609" y2="450" stroke="#f3f4f6" stroke-width="0.5"/><line x1="491.30434782608694" y1="60" x2="491.30434782608694" y2="450" stroke="#f3f4f6" stroke-width="0.5"/><line x1="528.695652173913" y1="60" x2="528.695652173913" y2="450" stroke="#f3f4f6" stroke-width="0.5"/><line x1="566.0869565217391" y1="60" x2="566.0869565217391" y2="450" stroke="#f3f4f6" stroke-width="0.5"/><line x1="603.4782608695652" y1="60" x2="603.4782608695652" y2="450" stroke="#f3f4f6" stroke-width="0.5"/><line x1="640.8695652173913" y1="60" x2="640.8695652173913" y2="450" stroke="#f3f4f6" stroke-width="0.5"/><line x1="678.2608695652174" y1="60" x2="678.2608695652174" y2="450" stroke="#f3f4f6" stroke-width="0.5"/><line x1="715.6521739130435" y1="60" x2="715.6521739130435" y2="450" stroke="#f3f4f6" stroke-width="0.5"/><line x1="753.0434782608695" y1="60" x2="753.0434782608695" y2="450" stroke="#f3f4f6" stroke-width="0.5"/><line x1="790.4347826086956" y1="60" x2="790.4347826086956" y2="450" stroke="#f3f4f6" stroke-width="0.5"/><line x1="827.8260869565217" y1="60" x2="827.8260869565217" y2="450" stroke="#f3f4f6" stroke-width="0.5"/><line x1="865.2173913043478" y1="60" x2="865.2173913043478" y2="450" stroke="#f3f4f6" stroke-width="0.5"/><line x1="902.6086956521739" y1="60" x2="902.6086956521739" y2="450" stroke="#f3f4f6" stroke-width="0.5"/><line x1="940" y1="60" x2="940" y2="450" stroke="#f3f4f6" stroke-width="0.5"/><line x1="977.391304347826" y1="60" x2="977.391304347826" y2="450" stroke="#f3f4f6" stroke-width="0.5"/><text x="80" y="485" text-anchor="end" font-size="10" font-family="system-ui, -apple-system, sans-serif" fill="#6b7280" transform="rotate(-45 80 485)">2000</text><text x="117.3913043478261" y="485" text-anchor="end" font-size="10" font-family="system-ui, -apple-system, sans-serif" fill="#6b7280" transform="rotate(-45 117.3913043478261 485)">2001</text><text x="154.7826086956522" y="485" text-anchor="end" font-size="10" font-family="system-ui, -apple-system, sans-serif" fill="#6b7280" transform="rotate(-45 154.7826086956522 485)">2002</text><text x="192.17391304347825" y="485" text-anchor="end" font-size="10" font-family="system-ui, -apple-system, sans-serif" fill="#6b7280" transform="rotate(-45 192.17391304347825 485)">2003</text><text x="229.56521739130434" y="485" text-anchor="end" font-size="10" font-family="system-ui, -apple-system, sans-serif" fill="#6b7280" transform="rotate(-45 229.56521739130434 485)">2004</text><text x="266.95652173913044" y="485" text-anchor="end" font-size="10" font-family="system-ui, -apple-system, sans-serif" fill="#6b7280" transform="rotate(-45 266.95652173913044 485)">2005</text><text x="304.3478260869565" y="485" text-anchor="end" font-size="10" font-family="system-ui, -apple-system, sans-serif" fill="#6b7280" transform="rotate(-45 304.3478260869565 485)">2006</text><text x="341.7391304347826" y="485" text-anchor="end" font-size="10" font-family="system-ui, -apple-system, sans-serif" fill="#6b7280" transform="rotate(-45 341.7391304347826 485)">2007</text><text x="379.1304347826087" y="485" text-anchor="end" font-size="10" font-family="system-ui, -apple-system, sans-serif" fill="#6b7280" transform="rotate(-45 379.1304347826087 485)">2008</text><text x="416.5217391304348" y="485" text-anchor="end" font-size="10" font-family="system-ui, -apple-system, sans-serif" fill="#6b7280" transform="rotate(-45 416.5217391304348 485)">2009</text><text x="453.9130434782609" y="485" text-anchor="end" font-size="10" font-family="system-ui, -apple-system, sans-serif" fill="#6b7280" transform="rotate(-45 453.9130434782609 485)">2010</text><text x="491.304347826087" y="485" text-anchor="end" font-size="10" font-family="system-ui, -apple-system, sans-serif" fill="#6b7280" transform="rotate(-45 491.304347826087 485)">2011</text><text x="528.695652173913" y="485" text-anchor="end" font-size="10" font-family="system-ui, -apple-system, sans-serif" fill="#6b7280" transform="rotate(-45 528.695652173913 485)">2012</text><text x="566.086956521739" y="485" text-anchor="end" font-size="10" font-family="system-ui, -apple-system, sans-serif" fill="#6b7280" transform="rotate(-45 566.086956521739 485)">2013</text><text x="603.4782608695652" y="485" text-anchor="end" font-size="10" font-family="system-ui, -apple-system, sans-serif" fill="#6b7280" transform="rotate(-45 603.4782608695652 485)">2014</text><text x="640.8695652173914" y="485" text-anchor="end" font-size="10" font-family="system-ui, -apple-system, sans-serif" fill="#6b7280" transform="rotate(-45 640.8695652173914 485)">2015</text><text x="678.2608695652174" y="485" text-anchor="end" font-size="10" font-family="system-ui, -apple-system, sans-serif" fill="#6b7280" transform="rotate(-45 678.2608695652174 485)">2016</text><text x="715.6521739130434" y="485" text-anchor="end" font-size="10" font-family="system-ui, -apple-system, sans-serif" fill="#6b7280" transform="rotate(-45 715.6521739130434 485)">2017</text><text x="753.0434782608696" y="485" text-anchor="end" font-size="10" font-family="system-ui, -apple-system, sans-serif" fill="#6b7280" transform="rotate(-45 753.0434782608696 485)">2018</text><text x="790.4347826086956" y="485" text-anchor="end" font-size="10" font-family="system-ui, -apple-system, sans-serif" fill="#6b7280" transform="rotate(-45 790.4347826086956 485)">2019</text><text x="827.8260869565217" y="485" text-anchor="end" font-size="10" font-family="system-ui, -apple-system, sans-serif" fill="#6b7280" transform="rotate(-45 827.8260869565217 485)">2020</text><text x="865.2173913043478" y="485" text-anchor="end" font-size="10" font-family="system-ui, -apple-system, sans-serif" fill="#6b7280" transform="rotate(-45 865.2173913043478 485)">2021</text><text x="902.608695652174" y="485" text-anchor="end" font-size="10" font-family="system-ui, -apple-system, sans-serif" fill="#6b7280" transform="rotate(-45 902.608695652174 485)">2022</text><text x="940" y="485" text-anchor="end" font-size="10" font-family="system-ui, -apple-system, sans-serif" fill="#6b7280" transform="rotate(-45 940 485)">2023</text><path d="M 80,194.67010004643507 L 117.3913043478261,161.08489172189627 L 154.7826086956522,128.59723922495675 L 192.17391304347825,98.63396513149564 L 229.56521739130434,93.91447507281862 L 266.95652173913044,92.59740807969945 L 304.3478260869565,83.70720587614505 L 341.7391304347826,67.57313521043523 L 379.1304347826087,60.768289079319516 L 416.5217391304348,62.52437840347841 L 453.9130434782609,60 L 491.304347826087,86.0120731141036 L 528.695652173913,108.40221199712948 L 566.086956521739,128.59723922495675 L 603.4782608695652,147.14593271138506 L 640.8695652173914,161.96293638397572 L 678.2608695652174,169.09704926337122 L 715.6521739130434,180.51162987040397 L 753.0434782608696,198.18227869475282 L 790.4347826086956,217.71877242602054 L 827.8260869565217,258.54784921271477 L 865.2173913043478,322.14100215289795 L 902.608695652174,383.2313985394065 L 940,450" fill="none" stroke="#000000" stroke-width="2" opacity="0.9"/><circle cx="80" cy="194.67010004643507" r="3" fill="#000000" stroke="#ffffff" stroke-width="1.5" opacity="0.95"/><circle cx="117.3913043478261" cy="161.08489172189627" r="3" fill="#000000" stroke="#ffffff" stroke-width="1.5" opacity="0.95"/><circle cx="154.7826086956522" cy="128.59723922495675" r="3" fill="#000000" stroke="#ffffff" stroke-width="1.5" opacity="0.95"/><circle cx="192.17391304347825" cy="98.63396513149564" r="3" fill="#000000" stroke="#ffffff" stroke-width="1.5" opacity="0.95"/><circle cx="229.56521739130434" cy="93.91447507281862" r="3" fill="#000000" stroke="#ffffff" stroke-width="1.5" opacity="0.95"/><circle cx="266.95652173913044" cy="92.59740807969945" r="3" fill="#000000" stroke="#ffffff" stroke-width="1.5" opacity="0.95"/><circle cx="304.3478260869565" cy="83.70720587614505" r="3" fill="#000000" stroke="#ffffff" stroke-width="1.5" opacity="0.95"/><circle cx="341.7391304347826" cy="67.57313521043523" r="3" fill="#000000" stroke="#ffffff" stroke-width="1.5" opacity="0.95"/><circle cx="379.1304347826087" cy="60.768289079319516" r="3" fill="#000000" stroke="#ffffff" stroke-width="1.5" opacity="0.95"/><circle cx="416.5217391304348" cy="62.52437840347841" r="3" fill="#000000" stroke="#ffffff" stroke-width="1.5" opacity="0.95"/><circle cx="453.9130434782609" cy="60" r="3" fill="#000000" stroke="#ffffff" stroke-width="1.5" opacity="0.95"/><circle cx="491.304347826087" cy="86.0120731141036" r="3" fill="#000000" stroke="#ffffff" stroke-width="1.5" opacity="0.95"/><circle cx="528.695652173913" cy="108.40221199712948" r="3" fill="#000000" stroke="#ffffff" stroke-width="1.5" opacity="0.95"/><circle cx="566.086956521739" cy="128.59723922495675" r="3" fill="#000000" stroke="#ffffff" stroke-width="1.5" opacity="0.95"/><circle cx="603.4782608695652" cy="147.14593271138506" r="3" fill="#000000" stroke="#ffffff" stroke-width="1.5" opacity="0.95"/><circle cx="640.8695652173914" cy="161.96293638397572" r="3" fill="#000000" stroke="#ffffff" stroke-width="1.5" opacity="0.95"/><circle cx="678.2608695652174" cy="169.09704926337122" r="3" fill="#000000" stroke="#ffffff" stroke-width="1.5" opacity="0.95"/><circle cx="715.6521739130434" cy="180.51162987040397" r="3" fill="#000000" stroke="#ffffff" stroke-width="1.5" opacity="0.95"/><circle cx="753.0434782608696" cy="198.18227869475282" r="3" fill="#000000" stroke="#ffffff" stroke-width="1.5" opacity="0.95"/><circle cx="790.4347826086956" cy="217.71877242602054" r="3" fill="#000000" stroke="#ffffff" stroke-width="1.5" opacity="0.95"/><circle cx="827.8260869565217" cy="258.54784921271477" r="3" fill="#000000" stroke="#ffffff" stroke-width="1.5" opacity="0.95"/><circle cx="865.2173913043478" cy="322.14100215289795" r="3" fill="#000000" stroke="#ffffff" stroke-width="1.5" opacity="0.95"/><circle cx="902.608695652174" cy="383.2313985394065" r="3" fill="#000000" stroke="#ffffff" stroke-width="1.5" opacity="0.95"/><circle cx="940" cy="450" r="3" fill="#000000" stroke="#ffffff" stroke-width="1.5" opacity="0.95"/><g transform="translate(925.5, 450)"><rect x="0" y="0" width="16" height="12" fill="#000000" rx="2"/><text x="22" y="9" font-size="11" font-family="system-ui, -apple-system, sans-serif" fill="#374151">Japan</text></g><g id="attribution"><rect x="0" y="496" width="1000" height="49" fill="#ffffff" opacity="0.95"/><line x1="0" y1="496" x2="1000" y2="496" stroke="#e5e7eb" stroke-width="0.5"/><text x="10" y="501" font-size="10" font-weight="500" font-family="system-ui, -apple-system, sans-serif" fill="#374151">出典: World Bank</text><text x="10" y="514" font-size="9" font-family="system-ui, -apple-system, sans-serif" fill="#6b7280">Indicator: SP.POP.TOTL</text><text x="10" y="527" font-size="9" font-family="system-ui, -apple-system, sans-serif" fill="#6b7280">ライセンス: CC BY 4.0 | https://data.worldbank.org</text></g></svg>