<svg width="800" height="550" xmlns="http://www.w3.org/2000/svg"><rect width="100%" height="100%" fill="#ffffff"/><text x="400" y="28" text-anchor="middle" font-size="16" font-weight="600" font-family="system-ui, -apple-system, sans-serif" fill="#1f2937">空き家の取得方法別内訳（2023年）</text><path d="M 400 245 L 400 80 A 165 165 0 1 1 256.78827434351444 326.9475541702833 Z" fill="#000000" stroke="#fff" stroke-width="2" opacity="0.9"/><text x="499.91423761073145" y="302.94303342651557" text-anchor="middle" font-size="12" font-weight="bold" fill="#fff">相続・贈与</text><text x="499.91423761073145" y="317.94303342651557" text-anchor="middle" font-size="10" fill="#fff">66.7%</text><path d="M 400 245 L 256.78827434351444 326.9475541702833 A 165 165 0 0 1 251.48856430928043 173.10178396454285 Z" fill="#22c55e" stroke="#fff" stroke-width="2" opacity="0.9"/><text x="284.56846975421274" y="248.9764085700405" text-anchor="middle" font-size="12" font-weight="bold" fill="#fff">新築・建替</text><text x="284.56846975421274" y="263.97640857004046" text-anchor="middle" font-size="10" fill="#fff">15.4%</text><path d="M 400 245 L 251.48856430928043 173.10178396454285 A 165 165 0 0 1 351.2494300223355 87.36630459558197 Z" fill="#86efac" stroke="#fff" stroke-width="2" opacity="0.9"/><text x="324.71918083196726" y="157.40406250635846" text-anchor="middle" font-size="12" font-weight="bold" fill="#fff">中古の住宅を購入</text><text x="324.71918083196726" y="172.40406250635846" text-anchor="middle" font-size="10" fill="#fff">13.1%</text><path d="M 400 245 L 351.2494300223355 87.36630459558197 A 165 165 0 0 1 399.99999999999994 80 Z" fill="#eab308" stroke="#fff" stroke-width="2" opacity="0.9"/><text x="382.74361384077184" y="130.79637861817343" text-anchor="middle" font-size="12" font-weight="bold" fill="#fff">新築の住宅を購入</text><text x="382.74361384077184" y="145.79637861817343" text-anchor="middle" font-size="10" fill="#fff">4.8%</text><g transform="translate(20, 60)"><rect x="0" y="0" width="20" height="15" fill="#000000"/><text x="30" y="12" font-size="12" fill="#333">相続・贈与: 3.26M</text><rect x="0" y="25" width="20" height="15" fill="#22c55e"/><text x="30" y="37" font-size="12" fill="#333">新築・建替: 754.00K</text><rect x="0" y="50" width="20" height="15" fill="#86efac"/><text x="30" y="62" font-size="12" fill="#333">中古の住宅を購入: 637.00K</text><rect x="0" y="75" width="20" height="15" fill="#eab308"/><text x="30" y="87" font-size="12" fill="#333">新築の住宅を購入: 233.00K</text></g><g id="attribution"><rect x="0" y="500" width="800" height="50" fill="#ffffff" opacity="0.95"/><line x1="0" y1="500" x2="800" y2="500" stroke="#e5e7eb" stroke-width="0.5"/><text x="10" y="510" font-size="10" font-weight="500" font-family="system-ui, -apple-system, sans-serif" fill="#374151">出典: e-Stat（政府統計の総合窓口）</text><text x="10" y="523" font-size="9" font-family="system-ui, -apple-system, sans-serif" fill="#6b7280">統計表ID: 0004025681</text><text x="10" y="536" font-size="9" font-family="system-ui, -apple-system, sans-serif" fill="#6b7280">ライセンス: 政府標準利用規約（第2.0版）準拠 | https://www.e-stat.go.jp</text></g></svg>